# xmcd
#
# Track frame offsets:
#	150
#	13177
#	25773
#	37922
#	52991
#	66842
#	81494
#	94538
#	108356
#	122261
#	135534
#	148586
#	162635
#	175304
#	189042
#	201554
#	215820
#	228495
#	243084
#	254491
#	266497
#	276198
#	287807
#	300431
#	313280
#
# Disc length: 4337
#
# Revision: 1
# Processed by: cddbd v1.5.1PL0 Copyright (c) Steve Scherf et al.
# Submitted via: dBpowerAMP V4.0
# Normalized: r0:DSETVAR1,TDELIM( - )
#
DISCID=6a10ef19
DTITLE=Various Artist - Hillbilly Blues. 25 Country Classics 1929-1947.
DYEAR=1900
DGENRE=General Country
TTITLE0=The Lone Star Cowboys - Deep Elm Blues
TTITLE1=The Carter Family - Hello Stranger
TTITLE2=The Allen Brothers - A New Salty Dog
TTITLE3=The Shelton Brothers - I'm Sitting On Top Of The World
TTITLE4=Jimmie Rodgers - T. B. Blues
TTITLE5=Bill Carlisle - Bell Clappin' Mama
TTITLE6=The Nations Brothers - Bankhead Blues
TTITLE7=Tom Darby and Jimmie Tarlton - Sweet Sarah Blues
TTITLE8=Cliff Carlisle - Pay Day Fight
TTITLE9=Roy Newman and His Boys - Match Box Blues
TTITLE10=Ashley and Foster - Times Ain't Like They Used To Be
TTITLE11=Dick Justice - Brown Skin Blues
TTITLE12=The Stripling Brothers - Salty Dog Blues
TTITLE13=Jimmie Davis - Easy Rider Blues
TTITLE14=Jess Hillard - Doggone Them Blues
TTITLE15=Norman Phelps and His Virginia Rounders - Atlanta Blues
TTITLE16=Hartman's Heartbreakers - Give It To Me Daddy
TTITLE17=Buddy Jones - Settle Down Blues
TTITLE18=The Riverside Ramblers - Dissatisfied
TTITLE19=The Swift Jewel Cowboys - Fan It
TTITLE20=The Three Tobacco Tags - V-8 Blues
TTITLE21=Smoky Wood and His Wood Chips - Woodchip Blues
TTITLE22=The Sons Of The Ozarks - Plantation Blues
TTITLE23=Johnny Lee Mills and His Boys - Milk Cow Blues
TTITLE24=The Delmore Brothers - Peach Tree Street Boogie
EXTD=william hale
EXTT0=
EXTT1=
EXTT2=
EXTT3=
EXTT4=
EXTT5=
EXTT6=
EXTT7=
EXTT8=
EXTT9=
EXTT10=
EXTT11=
EXTT12=
EXTT13=
EXTT14=
EXTT15=
EXTT16=
EXTT17=
EXTT18=
EXTT19=
EXTT20=
EXTT21=
EXTT22=
EXTT23=
EXTT24=
PLAYORDER=
